<svg width="1018" height="1022" viewBox="0 0 1018 1022" fill="none" xmlns="http://www.w3.org/2000/svg">
<g opacity="0.4">
<path d="M716.717 627.947C664.792 752.624 516.461 809.501 394.527 750.248C279.787 694.509 230.02 559.293 280.925 442.663C339.206 309.17 507.913 262.631 628.424 341.473C722.304 402.899 760.227 523.461 716.717 627.947ZM657.231 678.082C703.2 626.809 721.802 552.518 704.488 485.337C672.002 359.372 533.49 294.165 414.317 343.513C308.928 387.158 257.605 506.683 299.175 613.276C320.275 667.387 357.117 706.654 409.7 731.078C494.48 770.456 596.255 746.1 657.231 678.082Z" fill="#0F663A"/>
<ellipse cx="498.918" cy="537.891" rx="213.057" ry="211.492" fill="white"/>
<path d="M480.809 450.713C469.356 446.085 460.23 437.047 455.44 425.587C450.649 414.127 450.586 401.184 455.265 389.604C457.581 383.87 460.992 378.644 465.303 374.224C469.613 369.803 474.739 366.275 480.387 363.841C486.035 361.407 492.095 360.115 498.221 360.037C504.347 359.96 510.419 361.099 516.09 363.391C527.543 368.018 536.669 377.056 541.459 388.516C546.25 399.976 546.312 412.92 541.634 424.499C539.317 430.233 535.907 435.459 531.596 439.88C527.286 444.3 522.16 447.828 516.512 450.262C510.864 452.696 504.804 453.989 498.678 454.066C492.552 454.144 486.48 453.004 480.809 450.713ZM520.755 407.263C520.755 401.38 518.418 395.737 514.257 391.576C510.097 387.416 504.454 385.078 498.57 385.078C495.657 385.078 492.772 385.652 490.08 386.767C487.389 387.882 484.943 389.516 482.883 391.576C480.823 393.636 479.189 396.082 478.074 398.774C476.959 401.465 476.385 404.35 476.385 407.263C476.385 410.177 476.959 413.061 478.074 415.753C479.189 418.445 480.823 420.89 482.883 422.95C484.943 425.01 487.389 426.645 490.08 427.759C492.772 428.874 495.657 429.448 498.57 429.448C504.454 429.448 510.097 427.111 514.257 422.95C518.418 418.79 520.755 413.147 520.755 407.263Z" fill="#0F663A"/>
<path d="M431.048 495.036C441.515 495.036 449.999 486.551 449.999 476.085C449.999 465.618 441.515 457.134 431.048 457.134C420.582 457.134 412.098 465.618 412.098 476.085C412.098 486.551 420.582 495.036 431.048 495.036Z" fill="#0F663A"/>
<path d="M566.123 495.066C576.622 495.066 585.134 486.554 585.134 476.055C585.134 465.555 576.622 457.043 566.123 457.043C555.623 457.043 547.111 465.555 547.111 476.055C547.111 486.554 555.623 495.066 566.123 495.066Z" fill="#0F663A"/>
<path d="M486.722 511.569C459.339 489.656 497.633 456.016 516.161 482.583C522.891 492.255 521.34 501.766 511.507 511.115C511.097 511.497 510.77 511.959 510.547 512.474C510.323 512.989 510.208 513.545 510.207 514.108L510.056 704.583C510.056 711.676 506.509 715.343 499.417 715.585L496.787 715.676C495.616 715.72 494.449 715.528 493.354 715.111C492.259 714.694 491.26 714.06 490.416 713.247C489.572 712.434 488.901 711.459 488.443 710.381C487.985 709.302 487.749 708.143 487.75 706.971L487.69 513.564C487.69 512.758 487.367 512.093 486.722 511.569Z" fill="#0F663A"/>
<path d="M449.578 537.168C456.923 537.168 462.877 531.214 462.877 523.869C462.877 516.525 456.923 510.571 449.578 510.571C442.233 510.571 436.279 516.525 436.279 523.869C436.279 531.214 442.233 537.168 449.578 537.168Z" fill="#0F663A"/>
<path d="M547.745 537.139C555.073 537.139 561.014 531.198 561.014 523.87C561.014 516.542 555.073 510.601 547.745 510.601C540.417 510.601 534.477 516.542 534.477 523.87C534.477 531.198 540.417 537.139 547.745 537.139Z" fill="#0F663A"/>
<path d="M447.522 660.032C395.536 641.504 378.791 601.245 364.767 551.948C359.719 534.146 368.908 533.27 382.962 535.355C417.207 540.463 459.098 559.897 470.311 594.867C472.649 602.162 473.847 614.503 473.908 631.893C473.989 654.863 473.878 679.174 473.575 704.825C473.475 713.005 469.324 717.015 461.123 716.854L458.463 716.824C455.959 716.776 453.573 715.75 451.816 713.965C450.059 712.18 449.071 709.778 449.063 707.273L449.003 662.147C449.003 661.1 448.509 660.394 447.522 660.032ZM449.366 632.86C453.567 593.145 430.626 573.468 395.505 564.31C394.457 564.028 394.054 564.421 394.296 565.489C401.449 596.58 419.01 619.47 446.978 634.159C447.216 634.285 447.481 634.35 447.75 634.348C448.019 634.346 448.284 634.278 448.52 634.15C448.756 634.021 448.957 633.836 449.105 633.611C449.252 633.386 449.342 633.128 449.366 632.86Z" fill="#0F663A"/>
<path d="M549.863 660.545C549.492 660.677 549.171 660.921 548.944 661.246C548.716 661.571 548.594 661.96 548.593 662.359L548.291 707.514C548.285 708.729 548.032 709.929 547.548 711.043C547.064 712.157 546.359 713.163 545.475 713.998C544.592 714.834 543.547 715.483 542.406 715.906C541.264 716.329 540.048 716.518 538.831 716.461L535.597 716.31C528.021 715.947 524.202 711.978 524.142 704.401C523.719 658.037 523.658 627.399 523.96 612.488C524.988 563.252 579.543 541.974 619.138 534.267C631.923 531.758 635.822 540.131 632.588 551.223C618.08 600.67 602.333 641.353 549.863 660.545ZM550.165 634.129C578.365 621.828 595.321 594.807 603.088 565.882C603.451 564.552 602.968 564.068 601.638 564.431C566.607 574.043 543.213 593.417 548.321 633.101C548.483 634.25 549.097 634.593 550.165 634.129Z" fill="#0F663A"/>
<path d="M498.568 429.448C510.82 429.448 520.753 419.516 520.753 407.264C520.753 395.011 510.82 385.079 498.568 385.079C486.315 385.079 476.383 395.011 476.383 407.264C476.383 419.516 486.315 429.448 498.568 429.448Z" fill="#73B060"/>
<path d="M449.364 632.86C449.34 633.128 449.251 633.386 449.103 633.611C448.956 633.836 448.755 634.022 448.518 634.15C448.282 634.279 448.017 634.347 447.748 634.349C447.479 634.35 447.214 634.286 446.976 634.16C419.008 619.471 401.448 596.581 394.295 565.49C394.053 564.422 394.456 564.029 395.504 564.311C430.625 573.469 453.565 593.145 449.364 632.86Z" fill="#73B060"/>
<path d="M603.087 565.883C595.32 594.808 578.364 621.829 550.164 634.13C549.096 634.593 548.482 634.251 548.32 633.102C543.212 593.417 566.606 574.044 601.637 564.432C602.966 564.069 603.45 564.553 603.087 565.883Z" fill="#73B060"/>
</g>
</svg>
