<svg width="474" height="471" viewBox="0 0 474 471" fill="none" xmlns="http://www.w3.org/2000/svg">
<g opacity="0.4">
<path d="M455.717 324.947C403.792 449.624 255.461 506.501 133.527 447.248C18.787 391.509 -30.9801 256.293 19.9245 139.663C78.2064 6.16996 246.913 -40.3685 367.424 38.4726C461.304 99.8994 499.227 220.461 455.717 324.947ZM396.231 375.082C442.2 323.809 460.802 249.518 443.488 182.337C411.002 56.372 272.49 -8.83543 153.317 40.5134C47.9279 84.1579 -3.39492 203.683 38.1752 310.276C59.2754 364.387 96.1169 403.654 148.7 428.078C233.48 467.456 335.255 443.1 396.231 375.082Z" fill="#0F663A"/>
<ellipse cx="237.918" cy="234.891" rx="213.057" ry="211.492" fill="white"/>
<path d="M219.809 147.713C208.356 143.085 199.23 134.047 194.44 122.587C189.649 111.127 189.586 98.1836 194.265 86.604C196.581 80.8703 199.992 75.6441 204.303 71.2237C208.613 66.8034 213.739 63.2754 219.387 60.8413C225.035 58.4072 231.095 57.1146 237.221 57.0373C243.347 56.96 249.419 58.0995 255.09 60.3908C266.543 65.0182 275.669 74.0561 280.459 85.5162C285.25 96.9763 285.312 109.92 280.634 121.499C278.317 127.233 274.907 132.459 270.596 136.88C266.286 141.3 261.16 144.828 255.512 147.262C249.864 149.696 243.804 150.989 237.678 151.066C231.552 151.144 225.48 150.004 219.809 147.713ZM259.755 104.263C259.755 98.3795 257.418 92.7367 253.257 88.5762C249.097 84.4158 243.454 82.0784 237.57 82.0784C234.657 82.0784 231.772 82.6523 229.08 83.7672C226.389 84.882 223.943 86.5162 221.883 88.5762C219.823 90.6363 218.189 93.0819 217.074 95.7735C215.959 98.4651 215.385 101.35 215.385 104.263C215.385 107.177 215.959 110.061 217.074 112.753C218.189 115.445 219.823 117.89 221.883 119.95C223.943 122.01 226.389 123.645 229.08 124.759C231.772 125.874 234.657 126.448 237.57 126.448C243.454 126.448 249.097 124.111 253.257 119.95C257.418 115.79 259.755 110.147 259.755 104.263Z" fill="#0F663A"/>
<path d="M170.048 192.036C180.515 192.036 188.999 183.551 188.999 173.085C188.999 162.618 180.515 154.134 170.048 154.134C159.582 154.134 151.098 162.618 151.098 173.085C151.098 183.551 159.582 192.036 170.048 192.036Z" fill="#0F663A"/>
<path d="M305.123 192.066C315.622 192.066 324.134 183.554 324.134 173.055C324.134 162.555 315.622 154.043 305.123 154.043C294.623 154.043 286.111 162.555 286.111 173.055C286.111 183.554 294.623 192.066 305.123 192.066Z" fill="#0F663A"/>
<path d="M225.722 208.569C198.339 186.656 236.633 153.016 255.161 179.583C261.891 189.255 260.34 198.766 250.507 208.115C250.097 208.497 249.77 208.959 249.547 209.474C249.323 209.989 249.208 210.545 249.207 211.108L249.056 401.583C249.056 408.676 245.509 412.343 238.417 412.585L235.787 412.676C234.616 412.72 233.449 412.528 232.354 412.111C231.259 411.694 230.26 411.06 229.416 410.247C228.572 409.434 227.901 408.459 227.443 407.381C226.985 406.302 226.749 405.143 226.75 403.971L226.69 210.564C226.69 209.758 226.367 209.093 225.722 208.569Z" fill="#0F663A"/>
<path d="M188.578 234.168C195.923 234.168 201.877 228.214 201.877 220.869C201.877 213.525 195.923 207.571 188.578 207.571C181.233 207.571 175.279 213.525 175.279 220.869C175.279 228.214 181.233 234.168 188.578 234.168Z" fill="#0F663A"/>
<path d="M286.745 234.139C294.073 234.139 300.014 228.198 300.014 220.87C300.014 213.542 294.073 207.601 286.745 207.601C279.417 207.601 273.477 213.542 273.477 220.87C273.477 228.198 279.417 234.139 286.745 234.139Z" fill="#0F663A"/>
<path d="M186.522 357.032C134.536 338.504 117.791 298.245 103.767 248.948C98.7193 231.146 107.908 230.27 121.962 232.355C156.207 237.463 198.098 256.897 209.311 291.867C211.649 299.162 212.847 311.503 212.908 328.893C212.989 351.863 212.878 376.174 212.575 401.825C212.475 410.005 208.324 414.015 200.123 413.854L197.463 413.824C194.959 413.776 192.573 412.75 190.816 410.965C189.059 409.18 188.071 406.777 188.063 404.273L188.003 359.147C188.003 358.1 187.509 357.394 186.522 357.032ZM188.366 329.86C192.567 290.145 169.626 270.468 134.505 261.31C133.457 261.028 133.054 261.421 133.296 262.489C140.449 293.58 158.01 316.47 185.978 331.159C186.216 331.285 186.481 331.35 186.75 331.348C187.019 331.346 187.284 331.278 187.52 331.15C187.756 331.021 187.957 330.836 188.105 330.611C188.252 330.386 188.342 330.128 188.366 329.86Z" fill="#0F663A"/>
<path d="M288.863 357.545C288.492 357.677 288.171 357.921 287.944 358.246C287.716 358.571 287.594 358.96 287.593 359.359L287.291 404.514C287.285 405.729 287.032 406.929 286.548 408.043C286.064 409.157 285.359 410.163 284.475 410.998C283.592 411.834 282.547 412.483 281.406 412.906C280.264 413.329 279.048 413.518 277.831 413.461L274.597 413.31C267.021 412.947 263.202 408.978 263.142 401.401C262.719 355.037 262.658 324.399 262.96 309.488C263.988 260.252 318.543 238.974 358.138 231.267C370.923 228.758 374.822 237.131 371.588 248.223C357.08 297.67 341.333 338.353 288.863 357.545ZM289.165 331.129C317.365 318.828 334.321 291.807 342.088 262.882C342.451 261.552 341.968 261.068 340.638 261.431C305.607 271.043 282.213 290.417 287.321 330.101C287.483 331.25 288.097 331.593 289.165 331.129Z" fill="#0F663A"/>
<path d="M237.568 126.448C249.82 126.448 259.753 116.516 259.753 104.264C259.753 92.0112 249.82 82.0787 237.568 82.0787C225.315 82.0787 215.383 92.0112 215.383 104.264C215.383 116.516 225.315 126.448 237.568 126.448Z" fill="#73B060"/>
<path d="M188.364 329.86C188.34 330.128 188.251 330.386 188.103 330.611C187.956 330.836 187.755 331.022 187.518 331.15C187.282 331.279 187.017 331.347 186.748 331.349C186.479 331.35 186.214 331.286 185.976 331.16C158.008 316.471 140.448 293.581 133.295 262.49C133.053 261.422 133.456 261.029 134.504 261.311C169.625 270.469 192.565 290.145 188.364 329.86Z" fill="#73B060"/>
<path d="M342.087 262.883C334.32 291.808 317.364 318.829 289.164 331.13C288.096 331.593 287.482 331.251 287.32 330.102C282.212 290.417 305.606 271.044 340.637 261.432C341.966 261.069 342.45 261.553 342.087 262.883Z" fill="#73B060"/>
</g>
</svg>
