<svg width="49" height="49" viewBox="0 0 49 49" fill="none" xmlns="http://www.w3.org/2000/svg">
<path d="M18.5714 0C23.6786 0 27.8571 4.6192 27.8571 10.2649C27.8571 15.9106 23.6786 20.5298 18.5714 20.5298C13.4643 20.5298 9.28571 15.9106 9.28571 10.2649C9.28571 4.6192 13.4643 0 18.5714 0ZM34.8214 43.6258L39 48.168C40.1607 49.4511 41.7857 48.4246 41.7857 46.9105V35.9271L48.2857 27.202C48.5444 26.8207 48.7019 26.3673 48.7406 25.8927C48.7793 25.418 48.6977 24.9408 48.5049 24.5146C48.3121 24.0883 48.0157 23.7298 47.649 23.4793C47.2823 23.2287 46.8597 23.096 46.4286 23.096H30.1786C28.3214 23.096 27.1607 25.6622 28.3214 27.202L34.8214 35.9271V43.6258ZM30.1786 37.7235L24.8393 30.538C23.9107 29.2549 23.4464 27.7152 23.4464 26.1755C21.8214 25.6622 20.1964 25.6622 18.5714 25.6622C8.35714 25.6622 0 30.2814 0 35.9271V41.0596H30.1786V37.7235Z" fill="#FFF"/>
</svg>
