<svg width="49" height="35" viewBox="0 0 49 35" fill="none" xmlns="http://www.w3.org/2000/svg">
<path d="M7.3125 14.625C10.0014 14.625 12.1875 12.4389 12.1875 9.75C12.1875 7.06113 10.0014 4.875 7.3125 4.875C4.62363 4.875 2.4375 7.06113 2.4375 9.75C2.4375 12.4389 4.62363 14.625 7.3125 14.625ZM41.4375 14.625C44.1264 14.625 46.3125 12.4389 46.3125 9.75C46.3125 7.06113 44.1264 4.875 41.4375 4.875C38.7486 4.875 36.5625 7.06113 36.5625 9.75C36.5625 12.4389 38.7486 14.625 41.4375 14.625ZM43.875 17.0625H39C37.6594 17.0625 36.4482 17.6033 35.5646 18.4793C38.6344 20.1627 40.8129 23.202 41.2852 26.8125H46.3125C47.6607 26.8125 48.75 25.7232 48.75 24.375V21.9375C48.75 19.2486 46.5639 17.0625 43.875 17.0625ZM24.375 17.0625C29.09 17.0625 32.9062 13.2463 32.9062 8.53125C32.9062 3.81621 29.09 0 24.375 0C19.66 0 15.8438 3.81621 15.8438 8.53125C15.8438 13.2463 19.66 17.0625 24.375 17.0625ZM30.225 19.5H29.5928C28.0084 20.2617 26.2488 20.7188 24.375 20.7188C22.5012 20.7188 20.7492 20.2617 19.1572 19.5H18.525C13.6805 19.5 9.75 23.4305 9.75 28.275V30.4688C9.75 32.4873 11.3877 34.125 13.4062 34.125H35.3438C37.3623 34.125 39 32.4873 39 30.4688V28.275C39 23.4305 35.0695 19.5 30.225 19.5ZM13.1854 18.4793C12.3018 17.6033 11.0906 17.0625 9.75 17.0625H4.875C2.18613 17.0625 0 19.2486 0 21.9375V24.375C0 25.7232 1.08926 26.8125 2.4375 26.8125H7.45723C7.93711 23.202 10.1156 20.1627 13.1854 18.4793Z" fill="#0F663A"/>
</svg>
