<svg width="39" height="39" viewBox="0 0 39 39" fill="none" xmlns="http://www.w3.org/2000/svg">
<path d="M23.1562 25.5938V28.6406C23.1562 29.4487 22.8352 30.2237 22.2638 30.7951C21.6924 31.3665 20.9175 31.6875 20.1094 31.6875H7.92188C7.11379 31.6875 6.33881 31.3665 5.76741 30.7951C5.19601 30.2237 4.875 29.4487 4.875 28.6406V10.3594C4.875 9.55129 5.19601 8.77631 5.76741 8.20491C6.33881 7.63351 7.11379 7.3125 7.92188 7.3125H19.5C21.1826 7.3125 23.1562 8.67674 23.1562 10.3594V13.4062M28.0312 25.5938L34.125 19.5L28.0312 13.4062M13.4062 19.5H32.9062" stroke="#E61110" stroke-width="2.4375" stroke-linecap="round" stroke-linejoin="round"/>
</svg>
