<svg width="23" height="29" viewBox="0 0 23 29" fill="none" xmlns="http://www.w3.org/2000/svg">
<path d="M10.6112 28.3903C10.9159 28.695 11.3292 28.8661 11.7601 28.8661C12.191 28.8661 12.6042 28.695 12.9089 28.3903L22.1016 19.1977C22.2568 19.0478 22.3806 18.8685 22.4657 18.6702C22.5509 18.472 22.5957 18.2587 22.5976 18.043C22.5995 17.8272 22.5584 17.6132 22.4766 17.4135C22.3949 17.2138 22.2743 17.0324 22.1217 16.8798C21.9691 16.7272 21.7877 16.6066 21.588 16.5249C21.3883 16.4431 21.1743 16.402 20.9585 16.4039C20.7428 16.4058 20.5295 16.4506 20.3313 16.5358C20.133 16.6209 19.9537 16.7447 19.8038 16.8999L13.3851 23.3187L13.3851 1.79881C13.3851 1.36783 13.2139 0.954509 12.9091 0.649762C12.6044 0.345015 12.191 0.173812 11.7601 0.173812C11.3291 0.173812 10.9158 0.345015 10.611 0.649762C10.3063 0.954509 10.1351 1.36783 10.1351 1.79881L10.1351 23.3187L3.71631 16.8999C3.40983 16.6039 2.99936 16.4401 2.57329 16.4438C2.14722 16.4475 1.73965 16.6184 1.43836 16.9197C1.13707 17.221 0.966169 17.6286 0.962466 18.0547C0.958764 18.4807 1.12255 18.8912 1.41856 19.1977L10.6112 28.3903Z" fill="#0F663A"/>
</svg>
