<svg width="23" height="29" viewBox="0 0 23 29" fill="none" xmlns="http://www.w3.org/2000/svg">
<path d="M12.9494 0.649606C12.6446 0.344965 12.2314 0.173828 11.8005 0.173828C11.3696 0.173828 10.9563 0.344965 10.6516 0.649606L1.45898 9.84223C1.30378 9.99213 1.17998 10.1714 1.09482 10.3697C1.00965 10.568 0.964827 10.7812 0.962952 10.997C0.961077 11.2127 1.00219 11.4267 1.0839 11.6264C1.16561 11.8261 1.28627 12.0075 1.43884 12.1601C1.59142 12.3127 1.77285 12.4334 1.97256 12.5151C2.17227 12.5968 2.38624 12.6379 2.60201 12.636C2.81778 12.6341 3.03101 12.5893 3.22927 12.5041C3.42752 12.419 3.60683 12.2952 3.75673 12.14L10.1755 5.72123L10.1755 27.2411C10.1755 27.6721 10.3467 28.0854 10.6514 28.3902C10.9562 28.6949 11.3695 28.8661 11.8005 28.8661C12.2315 28.8661 12.6448 28.6949 12.9495 28.3902C13.2543 28.0854 13.4255 27.6721 13.4255 27.2411L13.4255 5.72123L19.8442 12.14C20.1507 12.436 20.5612 12.5998 20.9873 12.5961C21.4133 12.5924 21.8209 12.4215 22.1222 12.1202C22.4235 11.8189 22.5944 11.4113 22.5981 10.9853C22.6018 10.5592 22.438 10.1487 22.142 9.84223L12.9494 0.649606Z" fill="#0F663A"/>
</svg>
