<svg width="30" height="23" viewBox="0 0 30 23" fill="none" xmlns="http://www.w3.org/2000/svg">
<path d="M0.909372 10.3512C0.604731 10.6559 0.433594 11.0692 0.433594 11.5001C0.433594 11.9309 0.604731 12.3442 0.909372 12.6489L10.102 21.8416C10.2519 21.9968 10.4312 22.1206 10.6295 22.2057C10.8277 22.2909 11.041 22.3357 11.2567 22.3376C11.4725 22.3395 11.6865 22.2983 11.8862 22.2166C12.0859 22.1349 12.2673 22.0143 12.4199 21.8617C12.5725 21.7091 12.6931 21.5277 12.7748 21.328C12.8565 21.1283 12.8977 20.9143 12.8958 20.6985C12.8939 20.4828 12.8491 20.2695 12.7639 20.0713C12.6787 19.873 12.555 19.6937 12.3997 19.5438L5.981 13.1251L27.5009 13.1251C27.9318 13.1251 28.3452 12.9538 28.6499 12.6491C28.9547 12.3444 29.1259 11.931 29.1259 11.5001C29.1259 11.0691 28.9547 10.6558 28.6499 10.351C28.3452 10.0463 27.9318 9.87505 27.5009 9.87505L5.981 9.87505L12.3997 3.4563C12.6958 3.14982 12.8595 2.73935 12.8558 2.31328C12.8521 1.88721 12.6812 1.47964 12.38 1.17835C12.0787 0.87706 11.6711 0.70616 11.245 0.702457C10.819 0.698753 10.4085 0.862545 10.102 1.15855L0.909372 10.3512Z" fill="#0F663A"/>
</svg>
