<svg width="37" height="38" viewBox="0 0 37 38" fill="none" xmlns="http://www.w3.org/2000/svg">
<path d="M35.5975 26.2625C31.5414 36.0014 19.9548 40.4442 10.4302 35.8159C1.46751 31.4619 -2.41995 20.8998 1.55637 11.7894C6.10895 1.36184 19.2871 -2.27343 28.7007 3.8851C36.0339 8.68334 38.9962 18.1008 35.5975 26.2625ZM30.9508 30.1787C34.5417 26.1737 35.9947 20.3706 34.6423 15.1228C32.1046 5.28328 21.2851 0.189719 11.9761 4.04451C3.7438 7.45372 -0.265187 16.7902 2.98199 25.1165C4.63018 29.3433 7.508 32.4106 11.6154 34.3184C18.2378 37.3944 26.1879 35.4918 30.9508 30.1787Z" fill="#0F663A"/>
<ellipse cx="18.5844" cy="19.2283" rx="16.6425" ry="16.5203" fill="white"/>
<path d="M17.1702 12.4182C16.2756 12.0567 15.5627 11.3508 15.1885 10.4556C14.8143 9.56038 14.8094 8.54932 15.1749 7.6448C15.3558 7.19692 15.6223 6.78869 15.959 6.4434C16.2957 6.09811 16.696 5.82253 17.1372 5.63239C17.5784 5.44226 18.0518 5.34129 18.5303 5.33525C19.0088 5.32921 19.4831 5.41822 19.9261 5.5972C20.8208 5.95867 21.5336 6.66464 21.9078 7.55983C22.282 8.45501 22.2869 9.46608 21.9215 10.3706C21.7405 10.8185 21.4741 11.2267 21.1374 11.572C20.8007 11.9173 20.4003 12.1929 19.9591 12.383C19.5179 12.5731 19.0445 12.6741 18.566 12.6801C18.0875 12.6862 17.6132 12.5972 17.1702 12.4182ZM20.2905 9.02422C20.2905 8.56462 20.108 8.12384 19.783 7.79886C19.458 7.47387 19.0172 7.29129 18.5576 7.29129C18.33 7.29129 18.1047 7.33612 17.8944 7.42321C17.6842 7.51029 17.4932 7.63794 17.3322 7.79886C17.1713 7.95977 17.0437 8.15081 16.9566 8.36106C16.8695 8.57131 16.8247 8.79665 16.8247 9.02422C16.8247 9.2518 16.8695 9.47714 16.9566 9.68739C17.0437 9.89764 17.1713 10.0887 17.3322 10.2496C17.4932 10.4105 17.6842 10.5382 17.8944 10.6252C18.1047 10.7123 18.33 10.7572 18.5576 10.7572C19.0172 10.7572 19.458 10.5746 19.783 10.2496C20.108 9.9246 20.2905 9.48383 20.2905 9.02422Z" fill="#0F663A"/>
<path d="M13.2835 15.8805C14.1011 15.8805 14.7638 15.2178 14.7638 14.4002C14.7638 13.5827 14.1011 12.9199 13.2835 12.9199C12.466 12.9199 11.8032 13.5827 11.8032 14.4002C11.8032 15.2178 12.466 15.8805 13.2835 15.8805Z" fill="#0F663A"/>
<path d="M23.8342 15.8831C24.6543 15.8831 25.3192 15.2183 25.3192 14.3981C25.3192 13.578 24.6543 12.9131 23.8342 12.9131C23.014 12.9131 22.3491 13.578 22.3491 14.3981C22.3491 15.2183 23.014 15.8831 23.8342 15.8831Z" fill="#0F663A"/>
<path d="M17.6319 17.1714C15.4929 15.4597 18.4842 12.832 19.9314 14.9073C20.4571 15.6628 20.3359 16.4057 19.5679 17.136C19.5359 17.1658 19.5104 17.2019 19.4929 17.2421C19.4754 17.2824 19.4664 17.3258 19.4663 17.3697L19.4545 32.2484C19.4545 32.8024 19.1775 33.0889 18.6235 33.1078L18.4181 33.1148C18.3266 33.1183 18.2354 33.1033 18.1499 33.0707C18.0644 33.0381 17.9863 32.9886 17.9204 32.9251C17.8545 32.8616 17.8021 32.7855 17.7663 32.7012C17.7305 32.617 17.7121 32.5264 17.7122 32.4349L17.7074 17.3272C17.7074 17.2643 17.6822 17.2123 17.6319 17.1714Z" fill="#0F663A"/>
<path d="M14.7302 19.1724C15.3039 19.1724 15.769 18.7073 15.769 18.1335C15.769 17.5598 15.3039 17.0947 14.7302 17.0947C14.1565 17.0947 13.6914 17.5598 13.6914 18.1335C13.6914 18.7073 14.1565 19.1724 14.7302 19.1724Z" fill="#0F663A"/>
<path d="M22.3988 19.1696C22.9712 19.1696 23.4352 18.7055 23.4352 18.1331C23.4352 17.5607 22.9712 17.0967 22.3988 17.0967C21.8263 17.0967 21.3623 17.5607 21.3623 18.1331C21.3623 18.7055 21.8263 19.1696 22.3988 19.1696Z" fill="#0F663A"/>
<path d="M14.5697 28.7691C10.5089 27.3218 9.2009 24.177 8.10542 20.3263C7.71115 18.9358 8.42887 18.8673 9.52671 19.0302C12.2017 19.4292 15.4739 20.9473 16.3498 23.6789C16.5324 24.2487 16.6261 25.2127 16.6308 26.571C16.6371 28.3653 16.6284 30.2643 16.6048 32.268C16.5969 32.907 16.2727 33.2202 15.6321 33.2076L15.4243 33.2053C15.2287 33.2016 15.0423 33.1214 14.9051 32.982C14.7678 32.8425 14.6907 32.6549 14.6901 32.4592L14.6854 28.9343C14.6854 28.8525 14.6468 28.7974 14.5697 28.7691ZM14.7137 26.6466C15.0419 23.5443 13.2499 22.0073 10.5065 21.292C10.4247 21.2699 10.3932 21.3006 10.4121 21.384C10.9708 23.8127 12.3425 25.6007 14.5272 26.7481C14.5458 26.7579 14.5665 26.763 14.5875 26.7628C14.6085 26.7627 14.6292 26.7574 14.6476 26.7473C14.6661 26.7373 14.6818 26.7228 14.6933 26.7053C14.7048 26.6877 14.7118 26.6675 14.7137 26.6466Z" fill="#0F663A"/>
<path d="M22.564 28.8091C22.535 28.8193 22.5099 28.8385 22.4922 28.8638C22.4744 28.8892 22.4648 28.9196 22.4648 28.9508L22.4412 32.478C22.4407 32.5728 22.4209 32.6666 22.3831 32.7536C22.3453 32.8407 22.2903 32.9192 22.2212 32.9845C22.1522 33.0497 22.0706 33.1004 21.9814 33.1335C21.8923 33.1666 21.7973 33.1813 21.7022 33.1768L21.4496 33.165C20.8578 33.1367 20.5595 32.8266 20.5548 32.2348C20.5217 28.6131 20.517 26.2199 20.5406 25.0552C20.6209 21.2092 24.8824 19.5471 27.9752 18.9451C28.9739 18.7491 29.2785 19.4031 29.0259 20.2696C27.8926 24.1321 26.6626 27.3099 22.564 28.8091ZM22.5876 26.7456C24.7903 25.7847 26.1148 23.6741 26.7216 21.4146C26.7499 21.3108 26.7121 21.273 26.6083 21.3013C23.8719 22.0521 22.0446 23.5654 22.4436 26.6654C22.4561 26.7551 22.5041 26.7818 22.5876 26.7456Z" fill="#0F663A"/>
<path d="M18.5572 10.7579C19.5142 10.7579 20.2901 9.98199 20.2901 9.02492C20.2901 8.06785 19.5142 7.29199 18.5572 7.29199C17.6001 7.29199 16.8242 8.06785 16.8242 9.02492C16.8242 9.98199 17.6001 10.7579 18.5572 10.7579Z" fill="#73B060"/>
<path d="M14.7132 26.6467C14.7113 26.6676 14.7043 26.6878 14.6928 26.7053C14.6813 26.7229 14.6656 26.7374 14.6471 26.7474C14.6287 26.7575 14.608 26.7628 14.587 26.7629C14.566 26.7631 14.5453 26.758 14.5267 26.7482C12.342 25.6008 10.9703 23.8128 10.4116 21.3841C10.3927 21.3007 10.4242 21.27 10.506 21.2921C13.2494 22.0074 15.0414 23.5444 14.7132 26.6467Z" fill="#73B060"/>
<path d="M26.7208 21.4144C26.1141 23.6738 24.7896 25.7845 22.5868 26.7454C22.5034 26.7816 22.4554 26.7549 22.4428 26.6652C22.0438 23.5652 23.8712 22.0519 26.6075 21.3011C26.7114 21.2728 26.7492 21.3105 26.7208 21.4144Z" fill="#73B060"/>
</svg>
