<svg width="58" height="58" viewBox="0 0 58 58" fill="none" xmlns="http://www.w3.org/2000/svg">
<g clip-path="url(#clip0_69_67)">
<path d="M30.9997 53.1663C27.6566 53.1663 24.8074 51.9878 22.4519 49.6308C20.0965 47.2737 18.918 44.4244 18.9163 41.083V19.333C17.5872 19.333 16.4497 18.8601 15.504 17.9144C14.5583 16.9687 14.0846 15.8305 14.083 14.4997V9.66634C14.083 8.33717 14.5567 7.19973 15.504 6.25401C16.4513 5.30829 17.5888 4.83462 18.9163 4.83301H43.083C44.4122 4.83301 45.5504 5.30667 46.4978 6.25401C47.4451 7.20134 47.918 8.33879 47.9163 9.66634V14.4997C47.9163 15.8288 47.4435 16.9671 46.4978 17.9144C45.552 18.8618 44.4138 19.3346 43.083 19.333V41.083C43.083 44.4261 41.9045 47.2761 39.5474 49.6332C37.1904 51.9902 34.3411 53.1679 30.9997 53.1663ZM30.9997 48.333C32.5705 48.333 33.9802 47.8803 35.2288 46.9748C36.4775 46.0694 37.3434 44.911 37.8268 43.4997H30.9997V38.6663H38.2497V36.2497H30.9997V31.4163H38.2497V28.9997H30.9997V24.1663H38.2497V19.333H23.7497V41.083C23.7497 43.0969 24.4545 44.8087 25.8643 46.2184C27.274 47.6281 28.9858 48.333 30.9997 48.333Z" fill="#0F663A"/>
</g>
<defs>
<clipPath id="clip0_69_67">
<rect width="58" height="58" fill="white"/>
</clipPath>
</defs>
</svg>
