<svg width="31" height="31" viewBox="0 0 31 31" fill="none" xmlns="http://www.w3.org/2000/svg">
<path d="M27.85 30.125L17.6125 19.8875C16.8 20.5375 15.8656 21.0521 14.8094 21.4312C13.7531 21.8104 12.6292 22 11.4375 22C8.48542 22 5.98725 20.9773 3.943 18.932C1.89875 16.8867 0.876083 14.3885 0.875 11.4375C0.875 8.48542 1.89767 5.98725 3.943 3.943C5.98833 1.89875 8.4865 0.876083 11.4375 0.875C14.3896 0.875 16.8883 1.89767 18.9336 3.943C20.979 5.98833 22.0011 8.4865 22 11.4375C22 12.6292 21.8104 13.7531 21.4312 14.8094C21.0521 15.8656 20.5375 16.8 19.8875 17.6125L30.125 27.85L27.85 30.125ZM11.4375 18.75C13.4688 18.75 15.1956 18.0393 16.618 16.618C18.0404 15.1967 18.7511 13.4698 18.75 11.4375C18.75 9.40625 18.0393 7.67996 16.618 6.25863C15.1967 4.83729 13.4698 4.12608 11.4375 4.125C9.40625 4.125 7.67996 4.83621 6.25863 6.25863C4.83729 7.68104 4.12608 9.40733 4.125 11.4375C4.125 13.4688 4.83621 15.1956 6.25863 16.618C7.68104 18.0404 9.40733 18.7511 11.4375 18.75Z" fill="white"/>
</svg>
