<svg width="939" height="933" viewBox="0 0 939 933" fill="none" xmlns="http://www.w3.org/2000/svg">
<path d="M902.783 643.725C799.918 890.712 506.072 1003.39 264.52 886.007C37.2173 775.587 -61.3721 507.722 39.4708 276.674C154.928 12.2228 489.138 -79.9707 727.874 76.2148C913.851 197.902 988.978 436.737 902.783 643.725ZM784.939 743.044C876.006 641.472 912.857 494.3 878.558 361.213C814.201 111.674 539.808 -17.5031 303.724 80.2578C94.946 166.718 -6.72538 403.498 75.6258 614.662C117.425 721.857 190.409 799.646 294.577 848.029C462.527 926.039 664.147 877.788 784.939 743.044Z" fill="#0F663A"/>
<ellipse cx="471.319" cy="465.322" rx="422.069" ry="418.969" fill="white"/>
<path d="M435.448 292.621C412.759 283.454 394.681 265.55 385.191 242.847C375.701 220.145 375.576 194.503 384.845 171.564C389.434 160.205 396.191 149.852 404.73 141.095C413.269 132.339 423.423 125.35 434.612 120.528C445.801 115.706 457.806 113.145 469.941 112.992C482.077 112.839 494.105 115.096 505.34 119.635C528.029 128.802 546.107 146.706 555.597 169.409C565.087 192.112 565.212 217.753 555.944 240.692C551.354 252.051 544.597 262.404 536.058 271.161C527.519 279.918 517.365 286.907 506.176 291.729C494.987 296.551 482.982 299.112 470.847 299.265C458.711 299.418 446.683 297.16 435.448 292.621ZM514.582 206.547C514.582 194.891 509.952 183.713 501.71 175.471C493.468 167.229 482.29 162.599 470.634 162.599C464.862 162.599 459.147 163.735 453.815 165.944C448.483 168.153 443.638 171.39 439.557 175.471C435.476 179.552 432.239 184.397 430.03 189.729C427.822 195.061 426.685 200.776 426.685 206.547C426.685 212.319 427.822 218.034 430.03 223.366C432.239 228.698 435.476 233.543 439.557 237.624C443.638 241.705 448.483 244.942 453.815 247.151C459.147 249.359 464.862 250.496 470.634 250.496C482.29 250.496 493.468 245.866 501.71 237.624C509.952 229.382 514.582 218.203 514.582 206.547Z" fill="#0F663A"/>
<path d="M336.872 380.426C357.606 380.426 374.414 363.618 374.414 342.884C374.414 322.15 357.606 305.342 336.872 305.342C316.138 305.342 299.33 322.15 299.33 342.884C299.33 363.618 316.138 380.426 336.872 380.426Z" fill="#0F663A"/>
<path d="M604.454 380.485C625.254 380.485 642.115 363.624 642.115 342.824C642.115 322.024 625.254 305.162 604.454 305.162C583.654 305.162 566.792 322.024 566.792 342.824C566.792 363.624 583.654 380.485 604.454 380.485Z" fill="#0F663A"/>
<path d="M447.162 413.178C392.915 369.768 468.777 303.127 505.48 355.757C518.813 374.917 515.739 393.758 496.26 412.28C495.449 413.036 494.801 413.952 494.359 414.972C493.916 415.991 493.686 417.093 493.685 418.207L493.385 795.543C493.385 809.594 486.36 816.859 472.309 817.338L467.1 817.517C464.781 817.606 462.468 817.225 460.299 816.398C458.13 815.572 456.15 814.316 454.479 812.705C452.807 811.095 451.478 809.164 450.57 807.028C449.663 804.891 449.196 802.594 449.197 800.273L449.078 417.13C449.078 415.533 448.439 414.216 447.162 413.178Z" fill="#0F663A"/>
<path d="M373.577 463.892C388.127 463.892 399.922 452.096 399.922 437.546C399.922 422.996 388.127 411.201 373.577 411.201C359.027 411.201 347.231 422.996 347.231 437.546C347.231 452.096 359.027 463.892 373.577 463.892Z" fill="#0F663A"/>
<path d="M568.05 463.832C582.567 463.832 594.335 452.064 594.335 437.547C594.335 423.03 582.567 411.262 568.05 411.262C553.533 411.262 541.765 423.03 541.765 437.547C541.765 452.064 553.533 463.832 568.05 463.832Z" fill="#0F663A"/>
<path d="M369.504 707.286C266.518 670.582 233.347 590.828 205.565 493.171C195.566 457.905 213.768 456.168 241.61 460.3C309.449 470.419 392.437 508.919 414.65 578.195C419.281 592.645 421.656 617.094 421.776 651.542C421.935 697.047 421.716 745.207 421.117 796.022C420.917 812.228 412.694 820.171 396.448 819.852L391.179 819.792C386.218 819.698 381.491 817.665 378.011 814.129C374.53 810.592 372.573 805.833 372.558 800.872L372.438 711.477C372.438 709.402 371.46 708.005 369.504 707.286ZM373.157 653.458C381.479 574.782 336.034 535.803 266.459 517.66C264.383 517.102 263.585 517.88 264.064 519.996C278.234 581.588 313.022 626.933 368.426 656.033C368.898 656.282 369.424 656.41 369.957 656.407C370.49 656.403 371.013 656.268 371.482 656.013C371.95 655.758 372.348 655.392 372.64 654.946C372.932 654.5 373.11 653.989 373.157 653.458Z" fill="#0F663A"/>
<path d="M572.243 708.303C571.509 708.563 570.872 709.048 570.422 709.692C569.972 710.335 569.729 711.105 569.728 711.896L569.13 801.35C569.117 803.755 568.616 806.133 567.657 808.34C566.698 810.548 565.302 812.539 563.551 814.194C561.801 815.85 559.732 817.136 557.47 817.974C555.208 818.812 552.799 819.186 550.389 819.073L543.982 818.774C528.973 818.055 521.409 810.192 521.289 795.183C520.451 703.334 520.331 642.64 520.93 613.101C522.966 515.564 631.041 473.412 709.478 458.144C734.805 453.174 742.529 469.76 736.122 491.734C707.382 589.69 676.187 670.282 572.243 708.303ZM572.842 655.972C628.706 631.603 662.296 578.074 677.684 520.773C678.402 518.139 677.444 517.181 674.81 517.899C605.414 536.94 559.071 575.32 569.19 653.937C569.509 656.212 570.726 656.89 572.842 655.972Z" fill="#0F663A"/>
<path d="M470.632 250.496C494.904 250.496 514.581 230.819 514.581 206.547C514.581 182.275 494.904 162.599 470.632 162.599C446.36 162.599 426.684 182.275 426.684 206.547C426.684 230.819 446.36 250.496 470.632 250.496Z" fill="#73B060"/>
<path d="M373.155 653.458C373.108 653.989 372.931 654.5 372.638 654.946C372.346 655.392 371.948 655.758 371.48 656.013C371.012 656.268 370.488 656.403 369.955 656.407C369.422 656.41 368.896 656.282 368.425 656.033C313.02 626.933 278.233 581.588 264.062 519.996C263.583 517.88 264.381 517.102 266.457 517.661C336.032 535.803 381.478 574.782 373.155 653.458Z" fill="#73B060"/>
<path d="M677.683 520.775C662.295 578.076 628.705 631.604 572.841 655.974C570.726 656.892 569.508 656.213 569.189 653.938C559.07 575.321 605.414 536.941 674.809 517.901C677.444 517.182 678.402 518.14 677.683 520.775Z" fill="#73B060"/>
</svg>
