<svg width="58" height="58" viewBox="0 0 58 58" fill="none" xmlns="http://www.w3.org/2000/svg">
<path d="M32.8695 25.3977C32.6458 24.7638 32.2309 24.2149 31.6821 23.8267C31.1332 23.4385 30.4775 23.2302 29.8052 23.2304H27.2897C26.5721 23.2267 25.8785 23.4891 25.3432 23.9671C24.8078 24.4451 24.4688 25.1046 24.3915 25.8181C24.3142 26.5315 24.5042 27.2483 24.9248 27.8298C25.3454 28.4113 25.9667 28.8162 26.6685 28.9662L30.4989 29.8019C31.2821 29.9734 31.9743 30.4282 32.4425 31.0791C32.9108 31.7299 33.122 32.5308 33.0356 33.3279C32.9493 34.125 32.5714 34.862 31.9746 35.3974C31.3778 35.9329 30.6042 36.2289 29.8024 36.2286H27.6379C26.2228 36.2286 25.0194 35.326 24.5737 34.0641M28.7216 23.2304V19.9795M28.7216 39.4795V36.2314M15.1719 48.2155V41.2512H22.1362" stroke="#0F663A" stroke-width="2.78571" stroke-linecap="round" stroke-linejoin="round"/>
<path d="M46.9007 26.7822C47.6403 30.7245 47.0498 34.8009 45.2221 38.3714C43.3943 41.9419 40.4328 44.8045 36.8022 46.5098C33.1716 48.2151 29.0775 48.6667 25.1626 47.7936C21.2476 46.9205 17.7334 44.7721 15.1714 41.6857M11.3104 33.4456C10.5709 29.5032 11.1613 25.4269 12.9891 21.8563C14.8168 18.2858 17.7784 15.4233 21.409 13.7179C25.0396 12.0126 29.1336 11.5611 33.0486 12.4342C36.9635 13.3073 40.4778 15.4556 43.0397 18.542" stroke="#0F663A" stroke-width="2.78571" stroke-linecap="round" stroke-linejoin="round"/>
<path d="M43.0395 12.0127V18.977H36.0752" stroke="#0F663A" stroke-width="2.78571" stroke-linecap="round" stroke-linejoin="round"/>
</svg>
