<svg width="58" height="58" viewBox="0 0 58 58" fill="none" xmlns="http://www.w3.org/2000/svg">
<path fill-rule="evenodd" clip-rule="evenodd" d="M20 8C18.6739 8 17.4021 8.52678 16.4645 9.46447C15.5268 10.4021 15 11.6739 15 13V43C15 44.3261 15.5268 45.5978 16.4645 46.5355C17.4021 47.4732 18.6739 48 20 48H40C41.3261 48 42.5979 47.4732 43.5355 46.5355C44.4732 45.5978 45 44.3261 45 43V21.535C44.9997 20.209 44.4727 18.9375 43.535 18L35 9.465C34.0625 8.52725 32.791 8.00028 31.465 8H20ZM25 33C25 32.337 24.7366 31.7011 24.2678 31.2322C23.7989 30.7634 23.163 30.5 22.5 30.5C21.837 30.5 21.2011 30.7634 20.7322 31.2322C20.2634 31.7011 20 32.337 20 33V40.5C20 41.163 20.2634 41.7989 20.7322 42.2678C21.2011 42.7366 21.837 43 22.5 43C23.163 43 23.7989 42.7366 24.2678 42.2678C24.7366 41.7989 25 41.163 25 40.5V33ZM30 25.5C30.663 25.5 31.2989 25.7634 31.7678 26.2322C32.2366 26.7011 32.5 27.337 32.5 28V40.5C32.5 41.163 32.2366 41.7989 31.7678 42.2678C31.2989 42.7366 30.663 43 30 43C29.337 43 28.7011 42.7366 28.2322 42.2678C27.7634 41.7989 27.5 41.163 27.5 40.5V28C27.5 27.337 27.7634 26.7011 28.2322 26.2322C28.7011 25.7634 29.337 25.5 30 25.5ZM40 23C40 22.337 39.7366 21.7011 39.2678 21.2322C38.7989 20.7634 38.163 20.5 37.5 20.5C36.837 20.5 36.2011 20.7634 35.7322 21.2322C35.2634 21.7011 35 22.337 35 23V40.5C35 41.163 35.2634 41.7989 35.7322 42.2678C36.2011 42.7366 36.837 43 37.5 43C38.163 43 38.7989 42.7366 39.2678 42.2678C39.7366 41.7989 40 41.163 40 40.5V23Z" fill="#0F663A"/>
</svg>
