<svg width="115" height="115" viewBox="0 0 115 115" fill="none" xmlns="http://www.w3.org/2000/svg">
<rect x="0.168945" y="0.720581" width="114.28" height="114.28" rx="57.1398" fill="#2D71CB"/>
<path fill-rule="evenodd" clip-rule="evenodd" d="M41.6667 26C39.6333 26 37.6833 26.8077 36.2455 28.2455C34.8077 29.6833 34 31.6333 34 33.6667V79.6667C34 81.7 34.8077 83.65 36.2455 85.0878C37.6833 86.5256 39.6333 87.3333 41.6667 87.3333H72.3333C74.3667 87.3333 76.3167 86.5256 77.7545 85.0878C79.1923 83.65 80 81.7 80 79.6667V46.7537C79.9996 44.7205 79.1915 42.7708 77.7537 41.3333L64.6667 28.2463C63.2292 26.8085 61.2795 26.0004 59.2463 26H41.6667ZM49.3333 64.3333C49.3333 63.3167 48.9295 62.3416 48.2106 61.6228C47.4917 60.9039 46.5167 60.5 45.5 60.5C44.4833 60.5 43.5083 60.9039 42.7894 61.6228C42.0705 62.3416 41.6667 63.3167 41.6667 64.3333V75.8333C41.6667 76.85 42.0705 77.825 42.7894 78.5439C43.5083 79.2628 44.4833 79.6667 45.5 79.6667C46.5167 79.6667 47.4917 79.2628 48.2106 78.5439C48.9295 77.825 49.3333 76.85 49.3333 75.8333V64.3333ZM57 52.8333C58.0167 52.8333 58.9917 53.2372 59.7106 53.9561C60.4295 54.675 60.8333 55.65 60.8333 56.6667V75.8333C60.8333 76.85 60.4295 77.825 59.7106 78.5439C58.9917 79.2628 58.0167 79.6667 57 79.6667C55.9833 79.6667 55.0083 79.2628 54.2894 78.5439C53.5705 77.825 53.1667 76.85 53.1667 75.8333V56.6667C53.1667 55.65 53.5705 54.675 54.2894 53.9561C55.0083 53.2372 55.9833 52.8333 57 52.8333ZM72.3333 49C72.3333 47.9833 71.9295 47.0083 71.2106 46.2894C70.4917 45.5705 69.5167 45.1667 68.5 45.1667C67.4833 45.1667 66.5083 45.5705 65.7894 46.2894C65.0705 47.0083 64.6667 47.9833 64.6667 49V75.8333C64.6667 76.85 65.0705 77.825 65.7894 78.5439C66.5083 79.2628 67.4833 79.6667 68.5 79.6667C69.5167 79.6667 70.4917 79.2628 71.2106 78.5439C71.9295 77.825 72.3333 76.85 72.3333 75.8333V49Z" fill="white"/>
</svg>
