<svg width="50" height="50" viewBox="0 0 50 50" fill="none" xmlns="http://www.w3.org/2000/svg">
<path d="M9.375 7.8125C9.375 7.3981 9.21038 7.00067 8.91735 6.70765C8.62433 6.41462 8.2269 6.25 7.8125 6.25C7.3981 6.25 7.00067 6.41462 6.70765 6.70765C6.41462 7.00067 6.25 7.3981 6.25 7.8125V35.9375C6.25 38.0095 7.0731 39.9966 8.53823 41.4618C10.0034 42.9269 11.9905 43.75 14.0625 43.75H42.1875C42.6019 43.75 42.9993 43.5854 43.2924 43.2924C43.5854 42.9993 43.75 42.6019 43.75 42.1875C43.75 41.7731 43.5854 41.3757 43.2924 41.0826C42.9993 40.7896 42.6019 40.625 42.1875 40.625H14.0625C12.8193 40.625 11.627 40.1311 10.7479 39.2521C9.86886 38.373 9.375 37.1807 9.375 35.9375V7.8125ZM31.25 14.0625C31.25 14.4769 31.4146 14.8743 31.7076 15.1674C32.0007 15.4604 32.3981 15.625 32.8125 15.625H38.4156L28.125 25.9156L22.9813 20.7687C22.8361 20.6232 22.6637 20.5078 22.4739 20.429C22.284 20.3503 22.0805 20.3097 21.875 20.3097C21.6695 20.3097 21.466 20.3503 21.2761 20.429C21.0863 20.5078 20.9139 20.6232 20.7687 20.7687L12.9562 28.5812C12.811 28.7265 12.6957 28.899 12.6171 29.0888C12.5385 29.2786 12.498 29.482 12.498 29.6875C12.498 29.893 12.5385 30.0964 12.6171 30.2862C12.6957 30.476 12.811 30.6485 12.9562 30.7938C13.1015 30.939 13.274 31.0543 13.4638 31.1329C13.6536 31.2115 13.8571 31.252 14.0625 31.252C14.268 31.252 14.4714 31.2115 14.6612 31.1329C14.851 31.0543 15.0235 30.939 15.1688 30.7938L21.875 24.0844L27.0187 29.2313C27.1639 29.3768 27.3363 29.4922 27.5261 29.571C27.716 29.6497 27.9195 29.6903 28.125 29.6903C28.3305 29.6903 28.534 29.6497 28.7239 29.571C28.9137 29.4922 29.0861 29.3768 29.2313 29.2313L40.625 17.8344V23.6781C40.625 24.0925 40.7896 24.49 41.0826 24.783C41.3757 25.076 41.7731 25.2406 42.1875 25.2406C42.6019 25.2406 42.9993 25.076 43.2924 24.783C43.5854 24.49 43.75 24.0925 43.75 23.6781V14.0625C43.75 13.6481 43.5854 13.2507 43.2924 12.9576C42.9993 12.6646 42.6019 12.5 42.1875 12.5H32.8125C32.3981 12.5 32.0007 12.6646 31.7076 12.9576C31.4146 13.2507 31.25 13.6481 31.25 14.0625Z" fill="white"/>
</svg>
